<svg xmlns="http://www.w3.org/2000/svg" viewBox="0 0 512 512">
  <path d="M428.927 232.207c-22.627-6.703-47.554-13.538-71.88-13.71-35.807.436-66.391 14.68-90.66 33.88l-9.94 8.76-9.97-8.79c-33.908-27.546-79.438-41.003-125.64-29.779-41.552 8.405-75.584 26.848-120.39 20.949-8.448 120.889 104.301 209.276 219.34 169.55l36.66 42.61 35-42.61c115.375 41.18 229.499-47.913 221-169.55-30.94 4.07-56.61-3.44-83.52-11.31zm-225.89 121.43h-54.7c-37.113-.437-62.761-31.006-60-67.47h54.7c37.102.437 62.763 31.015 60 67.47zm221.52-60c0 33.14-26.86 60-60 60h-54.7c-2.765-36.457 22.906-67.036 60-67.47h54.7z" fill="#7c3aed"/>
</svg>
